<svg width="315" height="299" viewBox="0 0 315 299" fill="none" xmlns="http://www.w3.org/2000/svg">
<path d="M310.345 133.807C307.94 130.97 304.649 129.532 300.557 129.532C293.175 129.532 283.15 134.171 268.993 144.13C262.722 148.554 240.437 154.979 219.812 154.979C207.469 154.979 191.245 152.679 184.001 141.686C178.085 132.722 178.947 119.158 186.633 101.208C189.127 93.8649 190.869 82.8824 190.869 74.5103C190.869 33.6673 157.132 0.433594 115.664 0.433594C85.0795 0.433594 57.9834 18.2779 46.2545 46.0212C42.4776 46.7121 39.2482 47.061 36.428 47.061C26.6845 47.061 23.8145 43.057 19.573 35.9904C17.7538 32.9543 15.0443 31.2845 11.9257 31.2845C6.60637 31.2845 0.722265 36.5214 0.0922649 45.286C-0.786905 57.667 4.48319 74.4549 21.6692 83.4521C17.544 85.9955 13.8231 89.1756 10.3999 93.0904C7.86698 95.982 7.23144 99.4328 8.65817 102.568C10.3944 106.4 14.8456 108.971 19.7342 108.971C21.2606 108.971 22.776 108.717 24.2353 108.22C26.2594 107.534 28.7253 107.191 31.7947 107.191C34.6371 107.191 37.6616 107.473 40.5925 107.75C43.2639 107.999 45.8017 108.237 48.2239 108.275C51.265 114.833 55.2357 121.381 60.0247 127.767C61.9824 130.372 60.9586 132.324 54.3289 142.084C51.58 146.132 48.1581 151.164 44.0711 157.844C22.6431 192.803 23.4287 233.623 46.0786 261.836C75.5631 298.565 133.93 298.565 195.725 298.565C282.78 298.565 306.834 209.469 313.127 171.159C316.328 151.678 315.443 139.812 310.345 133.807ZM295.027 168.185C291.864 187.418 284.974 215.21 270.088 238.457C261.882 251.265 252.105 261.246 241.018 268.119C228.078 276.154 212.839 280.224 195.724 280.224C138.452 280.224 84.3542 280.224 60.3779 250.352C51.4969 239.281 46.8624 225.44 46.9842 210.332C47.0999 195.866 51.6182 180.627 59.7085 167.422C63.59 161.101 66.8643 156.274 69.5018 152.392C76.6077 141.918 84.6642 130.051 74.6999 116.763C70.8559 111.637 67.6659 106.445 65.1773 101.225C69.7559 98.1562 72.2888 93.8317 72.3934 88.8489C72.4986 83.1758 69.2914 77.6074 64.2151 74.6764C60.2167 72.3594 57.9114 70.1421 57.3749 68.0798C56.8655 66.1332 57.9827 64.2365 59.172 62.2234L59.2268 62.1348L59.559 62.0684L60.3108 60.1827C60.5267 59.7459 60.6922 59.3367 60.8307 58.9332L62.7607 54.0999C71.393 32.6393 92.1621 18.7713 115.664 18.7713C147.018 18.7713 172.526 43.7769 172.526 74.5109C172.526 80.6491 171.183 89.4137 169.474 94.6998C159.504 118.251 159.233 137.456 168.689 151.789C177.973 165.874 195.657 173.322 219.811 173.322C243.489 173.322 269.817 165.984 279.56 159.127C287.965 153.21 293.34 150.401 296.569 149.068C296.796 152.502 296.637 158.42 295.027 168.185Z" fill="#160F29"/>
<path d="M96.8077 51.9269C91.3106 51.9269 86.8594 56.3836 86.8594 61.8801C86.8594 67.3662 91.3106 71.8285 96.8077 71.8285C102.299 71.8285 106.755 67.3662 106.755 61.8801C106.755 56.3843 102.299 51.9269 96.8077 51.9269Z" fill="#160F29"/>
</svg>
