<svg width="52" height="52" viewBox="0 0 52 52" fill="none" xmlns="http://www.w3.org/2000/svg">
<rect x="0.5" y="0.5" width="51" height="51" rx="1.5" fill="#160F29"/>
<path d="M30.2857 12H38.8571C39.4255 12 39.9705 12.2112 40.3724 12.5871C40.7742 12.9631 41 13.473 41 14.0046V22.023C41 22.5547 40.7742 23.0646 40.3724 23.4405C39.9705 23.8165 39.4255 24.0276 38.8571 24.0276H30.2857C29.7174 24.0276 29.1723 23.8165 28.7705 23.4405C28.3686 23.0646 28.1429 22.5547 28.1429 22.023V14.0046C28.1429 13.473 28.3686 12.9631 28.7705 12.5871C29.1723 12.2112 29.7174 12 30.2857 12ZM29.5714 22.023C29.5714 22.2003 29.6467 22.3702 29.7806 22.4955C29.9146 22.6208 30.0963 22.6912 30.2857 22.6912H38.8571C39.0466 22.6912 39.2283 22.6208 39.3622 22.4955C39.4962 22.3702 39.5714 22.2003 39.5714 22.023V14.0046C39.5714 13.8274 39.4962 13.6574 39.3622 13.5321C39.2283 13.4068 39.0466 13.3364 38.8571 13.3364H30.2857C30.0963 13.3364 29.9146 13.4068 29.7806 13.5321C29.6467 13.6574 29.5714 13.8274 29.5714 14.0046V22.023ZM13.1429 12H21.7143C22.2826 12 22.8277 12.2112 23.2295 12.5871C23.6314 12.9631 23.8571 13.473 23.8571 14.0046V22.023C23.8571 22.5547 23.6314 23.0646 23.2295 23.4405C22.8277 23.8165 22.2826 24.0276 21.7143 24.0276H13.1429C12.5745 24.0276 12.0295 23.8165 11.6276 23.4405C11.2258 23.0646 11 22.5547 11 22.023V14.0046C11 13.473 11.2258 12.9631 11.6276 12.5871C12.0295 12.2112 12.5745 12 13.1429 12ZM12.4286 22.023C12.4286 22.2003 12.5038 22.3702 12.6378 22.4955C12.7717 22.6208 12.9534 22.6912 13.1429 22.6912H21.7143C21.9037 22.6912 22.0854 22.6208 22.2194 22.4955C22.3533 22.3702 22.4286 22.2003 22.4286 22.023V14.0046C22.4286 13.8274 22.3533 13.6574 22.2194 13.5321C22.0854 13.4068 21.9037 13.3364 21.7143 13.3364H13.1429C12.9534 13.3364 12.7717 13.4068 12.6378 13.5321C12.5038 13.6574 12.4286 13.8274 12.4286 14.0046V22.023ZM30.2857 28.0369H38.8571C39.4255 28.0369 39.9705 28.2481 40.3724 28.624C40.7742 28.9999 41 29.5098 41 30.0415V38.0599C41 38.5916 40.7742 39.1014 40.3724 39.4774C39.9705 39.8533 39.4255 40.0645 38.8571 40.0645H30.2857C29.7174 40.0645 29.1723 39.8533 28.7705 39.4774C28.3686 39.1014 28.1429 38.5916 28.1429 38.0599V30.0415C28.1429 29.5098 28.3686 28.9999 28.7705 28.624C29.1723 28.2481 29.7174 28.0369 30.2857 28.0369ZM29.5714 38.0599C29.5714 38.2371 29.6467 38.4071 29.7806 38.5324C29.9146 38.6577 30.0963 38.7281 30.2857 38.7281H38.8571C39.0466 38.7281 39.2283 38.6577 39.3622 38.5324C39.4962 38.4071 39.5714 38.2371 39.5714 38.0599V30.0415C39.5714 29.8643 39.4962 29.6943 39.3622 29.569C39.2283 29.4437 39.0466 29.3733 38.8571 29.3733H30.2857C30.0963 29.3733 29.9146 29.4437 29.7806 29.569C29.6467 29.6943 29.5714 29.8643 29.5714 30.0415V38.0599ZM13.1429 28.0369H21.7143C22.2826 28.0369 22.8277 28.2481 23.2295 28.624C23.6314 28.9999 23.8571 29.5098 23.8571 30.0415V38.0599C23.8571 38.5916 23.6314 39.1014 23.2295 39.4774C22.8277 39.8533 22.2826 40.0645 21.7143 40.0645H13.1429C12.5745 40.0645 12.0295 39.8533 11.6276 39.4774C11.2258 39.1014 11 38.5916 11 38.0599V30.0415C11 29.5098 11.2258 28.9999 11.6276 28.624C12.0295 28.2481 12.5745 28.0369 13.1429 28.0369ZM12.4286 38.0599C12.4286 38.2371 12.5038 38.4071 12.6378 38.5324C12.7717 38.6577 12.9534 38.7281 13.1429 38.7281H21.7143C21.9037 38.7281 22.0854 38.6577 22.2194 38.5324C22.3533 38.4071 22.4286 38.2371 22.4286 38.0599V30.0415C22.4286 29.8643 22.3533 29.6943 22.2194 29.569C22.0854 29.4437 21.9037 29.3733 21.7143 29.3733H13.1429C12.9534 29.3733 12.7717 29.4437 12.6378 29.569C12.5038 29.6943 12.4286 29.8643 12.4286 30.0415V38.0599Z" fill="white"/>
<rect x="0.5" y="0.5" width="51" height="51" rx="1.5" stroke="#160F29"/>
</svg>
