<svg width="396" height="481" viewBox="0 0 396 481" fill="none" xmlns="http://www.w3.org/2000/svg">
<path d="M310.345 307.807C307.94 304.97 304.649 303.532 300.557 303.532C293.175 303.532 283.15 308.171 268.993 318.13C262.722 322.554 240.437 328.979 219.812 328.979C207.469 328.979 191.245 326.679 184.001 315.686C178.085 306.722 178.947 293.158 186.633 275.208C189.127 267.865 190.869 256.882 190.869 248.51C190.869 207.667 157.132 174.434 115.664 174.434C85.0795 174.434 57.9834 192.278 46.2545 220.021C42.4776 220.712 39.2482 221.061 36.428 221.061C26.6845 221.061 23.8145 217.057 19.573 209.99C17.7538 206.954 15.0443 205.285 11.9257 205.285C6.60637 205.285 0.722265 210.521 0.0922649 219.286C-0.786905 231.667 4.48319 248.455 21.6692 257.452C17.544 259.995 13.8231 263.176 10.3999 267.09C7.86698 269.982 7.23144 273.433 8.65817 276.568C10.3944 280.4 14.8456 282.971 19.7342 282.971C21.2606 282.971 22.776 282.717 24.2353 282.22C26.2594 281.534 28.7253 281.191 31.7947 281.191C34.6371 281.191 37.6616 281.473 40.5925 281.75C43.2639 281.999 45.8017 282.237 48.2239 282.275C51.265 288.833 55.2357 295.381 60.0247 301.767C61.9824 304.372 60.9586 306.324 54.3289 316.084C51.58 320.132 48.1581 325.164 44.0711 331.844C22.6431 366.803 23.4287 407.623 46.0786 435.836C75.5631 472.565 133.93 472.565 195.725 472.565C282.78 472.565 306.834 383.469 313.127 345.159C316.328 325.678 315.443 313.812 310.345 307.807ZM295.027 342.185C291.864 361.418 284.974 389.21 270.088 412.457C261.882 425.265 252.105 435.246 241.018 442.119C228.078 450.154 212.839 454.224 195.724 454.224C138.452 454.224 84.3542 454.224 60.3779 424.352C51.4969 413.281 46.8624 399.44 46.9842 384.332C47.0999 369.866 51.6182 354.627 59.7085 341.422C63.59 335.101 66.8643 330.274 69.5018 326.392C76.6077 315.918 84.6642 304.051 74.6999 290.763C70.8559 285.637 67.6659 280.445 65.1773 275.225C69.7559 272.156 72.2888 267.832 72.3934 262.849C72.4986 257.176 69.2914 251.607 64.2151 248.676C60.2167 246.359 57.9114 244.142 57.3749 242.08C56.8655 240.133 57.9827 238.236 59.172 236.223L59.2268 236.135L59.559 236.068L60.3108 234.183C60.5267 233.746 60.6922 233.337 60.8307 232.933L62.7607 228.1C71.393 206.639 92.1621 192.771 115.664 192.771C147.018 192.771 172.526 217.777 172.526 248.511C172.526 254.649 171.183 263.414 169.474 268.7C159.504 292.251 159.233 311.456 168.689 325.789C177.973 339.874 195.657 347.322 219.811 347.322C243.489 347.322 269.817 339.984 279.56 333.127C287.965 327.21 293.34 324.401 296.569 323.068C296.796 326.502 296.637 332.42 295.027 342.185Z" fill="#160F29"/>
<path d="M96.8077 225.927C91.3106 225.927 86.8594 230.384 86.8594 235.88C86.8594 241.366 91.3106 245.828 96.8077 245.828C102.299 245.828 106.755 241.366 106.755 235.88C106.755 230.384 102.299 225.927 96.8077 225.927Z" fill="#160F29"/>
<path d="M317.542 134.5C342.302 134.5 362.375 114.427 362.375 89.6666C362.375 64.9058 342.302 44.8333 317.542 44.8333C292.781 44.8333 272.708 64.9058 272.708 89.6666C272.708 114.427 292.781 134.5 317.542 134.5Z" stroke="#160F29" stroke-width="15"/>
<path d="M261.5 224.167C280.071 224.167 295.125 209.112 295.125 190.542C295.125 171.971 280.071 156.917 261.5 156.917C242.929 156.917 227.875 171.971 227.875 190.542C227.875 209.112 242.929 224.167 261.5 224.167Z" stroke="#160F29" stroke-width="15"/>
<path d="M199.854 134.5C215.33 134.5 227.875 121.955 227.875 106.479C227.875 91.0036 215.33 78.4583 199.854 78.4583C184.379 78.4583 171.833 91.0036 171.833 106.479C171.833 121.955 184.379 134.5 199.854 134.5Z" stroke="#160F29" stroke-width="15"/>
</svg>
